# xmcd
#
# Track frame offsets: 
#        183
#        19818
#        42430
#        66040
#        90175
#        126500
#        155465
#        188670
#
# Disc length: 2887 seconds
#
# Revision: 7
# Processed by: cddbd v1.5.2PL0 Copyright (c) Steve Scherf et al.
# Submitted via: ExactAudioCopy v0.99pb5
#
DISCID=600b4508
DTITLE=Outback - Dance the Devil Away
DYEAR=1991
DGENRE=Folk/Rock
TTITLE0=Cuban Connections
TTITLE1=Aziz Aziz
TTITLE2=Two in the Bush
TTITLE3=Desert Rain
TTITLE4=What Can I Say
TTITLE5=Medina
TTITLE6=Dance the Devil Away
TTITLE7=Animal Life
EXTD=YEAR: 1991
EXTT0=
EXTT1=
EXTT2=
EXTT3=
EXTT4=
EXTT5=
EXTT6=
EXTT7=
PLAYORDER=
